<svg xmlns="http://www.w3.org/2000/svg" width="69" height="69" viewBox="0 0 69 69" fill="none"><path d="M18.1901 59.0482C15.8901 59.0482 13.9421 58.2501 12.346 56.654C10.7499 55.0579 9.95181 53.1099 9.95181 50.8099C9.95181 48.5099 10.7499 46.5621 12.346 44.9664C13.9421 43.3703 15.8901 42.5723 18.1901 42.5723C20.4901 42.5723 22.4379 43.3703 24.0336 44.9664C25.6297 46.5621 26.4277 48.5099 26.4277 50.8099C26.4277 51.774 26.2629 52.7052 25.9332 53.6037C25.6031 54.5021 25.1265 55.3088 24.5036 56.0237V55.1892C26.0518 55.9592 27.6664 56.5369 29.3473 56.9221C31.0277 57.3074 32.7453 57.5 34.5 57.5C40.9208 57.5 46.3594 55.2719 50.8156 50.8156C55.2719 46.3594 57.5 40.9208 57.5 34.5H60.375C60.375 38.0717 59.6958 41.4326 58.3373 44.5826C56.9789 47.7322 55.1353 50.4721 52.8066 52.8023C50.4778 55.1324 47.7394 56.977 44.5913 58.3359C41.4431 59.6953 38.0794 60.375 34.5 60.375C32.4578 60.375 30.4609 60.1474 28.5092 59.6922C26.5576 59.237 24.6603 58.5357 22.8174 57.5884C22.1246 58.0934 21.3833 58.4629 20.5936 58.6967C19.8035 58.931 19.0023 59.0482 18.1901 59.0482ZM18.193 56.1732C19.6837 56.1732 20.9496 55.6514 21.9909 54.6078C23.0321 53.5646 23.5527 52.2977 23.5527 50.807C23.5527 49.3163 23.0311 48.0504 21.988 47.0091C20.9444 45.9679 19.6772 45.4473 18.1865 45.4473C16.6958 45.4473 15.4299 45.9689 14.3887 47.012C13.3474 48.0556 12.8268 49.3228 12.8268 50.8135C12.8268 52.3042 13.3486 53.5701 14.3923 54.6113C15.4354 55.6526 16.7023 56.1732 18.193 56.1732ZM34.5 42.7383C32.2 42.7383 30.2519 41.9403 28.6558 40.3442C27.0597 38.7481 26.2617 36.8 26.2617 34.5C26.2617 32.2 27.0597 30.2519 28.6558 28.6558C30.2519 27.0597 32.2 26.2617 34.5 26.2617C36.8 26.2617 38.7481 27.0597 40.3442 28.6558C41.9403 30.2519 42.7383 32.2 42.7383 34.5C42.7383 36.8 41.9403 38.7481 40.3442 40.3442C38.7481 41.9403 36.8 42.7383 34.5 42.7383ZM8.625 34.5C8.625 30.9283 9.30422 27.5674 10.6627 24.4174C12.0211 21.2678 13.8647 18.5279 16.1934 16.1977C18.5222 13.8676 21.2606 12.023 24.4088 10.6641C27.5569 9.3047 30.9206 8.625 34.5 8.625C36.5422 8.625 38.5391 8.8526 40.4908 9.30781C42.4424 9.76302 44.3397 10.4643 46.1826 11.4116C46.8912 10.9434 47.6332 10.5925 48.4085 10.3586C49.1838 10.1243 49.9843 10.0072 50.8099 10.0072C53.1099 10.0072 55.0488 10.7959 56.6267 12.3733C58.2041 13.9512 58.9928 15.8901 58.9928 18.1901C58.9928 20.4901 58.2041 22.4379 56.6267 24.0336C55.0488 25.6297 53.1099 26.4277 50.8099 26.4277C48.5099 26.4277 46.5621 25.6297 44.9664 24.0336C43.3703 22.4379 42.5723 20.4901 42.5723 18.1901C42.5723 17.226 42.7371 16.2948 43.0668 15.3963C43.3969 14.4979 43.8735 13.6912 44.4964 12.9763V13.8108C42.9482 13.0408 41.3336 12.4631 39.6527 12.0779C37.9723 11.6926 36.2547 11.5 34.5 11.5C28.0792 11.5 22.6406 13.7281 18.1844 18.1844C13.7281 22.6406 11.5 28.0792 11.5 34.5H8.625ZM50.8099 23.5527C52.2843 23.5527 53.5375 23.023 54.5697 21.9636C55.6018 20.9036 56.1178 19.6458 56.1178 18.1901C56.1178 16.7339 55.6018 15.4852 54.5697 14.444C53.5375 13.4028 52.2843 12.8822 50.8099 12.8822C49.3542 12.8822 48.0964 13.4001 47.0364 14.4361C45.977 15.4721 45.4473 16.7299 45.4473 18.2095C45.4473 19.6892 45.9686 20.9496 47.0113 21.9909C48.0539 23.0321 49.3201 23.5527 50.8099 23.5527Z" fill="currentColor"></path></svg>