<svg xmlns="http://www.w3.org/2000/svg" width="77" height="76" viewBox="0 0 77 76" fill="none"><path d="M38.3846 63.4448C37.8832 63.4448 37.3806 63.3446 36.8771 63.1444C36.374 62.9441 35.9425 62.644 35.5824 62.244L15.6651 42.247C13.8254 40.4073 12.4211 38.3352 11.4523 36.0308C10.4841 33.7258 10 31.3665 10 28.9527C10 24.428 11.4171 20.5848 14.2514 17.4231C17.0862 14.2608 20.5656 12.6797 24.6898 12.6797C26.8486 12.6797 28.9239 13.1286 30.9155 14.0264C32.9066 14.9242 34.6888 16.1857 36.2621 17.811L38.3846 20.055L40.3857 17.9324C41.9874 16.2262 43.794 14.9242 45.8056 14.0264C47.8167 13.1286 49.8817 12.6797 52.0006 12.6797C56.1247 12.6797 59.6174 14.2608 62.4784 17.4231C65.339 20.5848 66.7692 24.4017 66.7692 28.8739C66.7692 31.3281 66.282 33.7077 65.3074 36.0126C64.3329 38.317 62.9318 40.3891 61.1041 42.2289L41.108 62.244C40.7074 62.644 40.2788 62.9441 39.822 63.1444C39.3652 63.3446 38.8861 63.4448 38.3846 63.4448ZM41.5385 27.1148C41.8213 27.1148 42.078 27.1756 42.3088 27.297C42.539 27.4184 42.7251 27.5882 42.867 27.8063L48.6527 36.5764H61.4984C62.2306 35.3595 62.7796 34.099 63.1455 32.7949C63.5113 31.4908 63.674 30.1838 63.6335 28.8739C63.5689 25.247 62.4206 22.173 60.1887 19.6521C57.9569 17.1306 55.2275 15.8698 52.0006 15.8698C50.2901 15.8698 48.6254 16.2157 47.0064 16.9074C45.3869 17.5986 43.9848 18.6094 42.8 19.9398L39.9434 23.0148C39.7211 23.2898 39.4806 23.4787 39.222 23.5817C38.9628 23.6848 38.6837 23.7363 38.3846 23.7363C38.0855 23.7363 37.7964 23.6748 37.5173 23.5518C37.2382 23.4283 36.9814 23.2493 36.747 23.0148L33.8904 19.9398C32.7056 18.6094 31.3066 17.5926 29.6934 16.8893C28.0802 16.1855 26.4124 15.8335 24.6898 15.8335C21.4629 15.8335 18.7335 17.1003 16.5017 19.6339C14.2698 22.167 13.1538 25.247 13.1538 28.8739C13.1538 30.2243 13.3339 31.5413 13.6939 32.8249C14.0535 34.109 14.5791 35.3595 15.2709 36.5764H28.9231C29.2059 36.5764 29.4524 36.6371 29.6627 36.7585C29.8729 36.8799 30.049 37.0497 30.1909 37.2679L34.7695 44.0967L40.0585 28.2305C40.1878 27.8831 40.3768 27.6103 40.6254 27.4121C40.8741 27.2139 41.1784 27.1148 41.5385 27.1148ZM41.9997 32.2099L36.7107 48.0761C36.5814 48.4235 36.3793 48.6963 36.1044 48.8945C35.8295 49.0927 35.512 49.1918 35.1519 49.1918C34.8691 49.1918 34.6226 49.1311 34.4123 49.0096C34.2021 48.8882 34.026 48.7184 33.8841 48.5003L28.0376 39.7302H17.6299L37.8327 59.9937C37.9378 60.0988 38.0298 60.1645 38.1087 60.1908C38.1875 60.2171 38.2795 60.2302 38.3846 60.2302C38.4897 60.2302 38.5817 60.2171 38.6606 60.1908C38.7394 60.1645 38.8314 60.0988 38.9365 59.9937L59.1212 39.7302H47.8462C47.5634 39.7302 47.3066 39.6595 47.0758 39.5181C46.8456 39.3767 46.6535 39.1967 46.4995 38.978L41.9997 32.2099Z" fill="currentColor"></path></svg>