<svg xmlns="http://www.w3.org/2000/svg" width="76" height="76" viewBox="0 0 76 76" fill="none"><path d="M12.9229 57.9825V48.5202C12.9229 45.0068 14.1471 42.0259 16.5955 39.5775C19.0434 37.129 22.0243 35.9048 25.5382 35.9048H59.3632C60.4829 35.9048 61.433 36.2846 62.2135 37.0441C62.9941 37.8032 63.3844 38.7375 63.3844 39.8471C63.3844 40.7896 63.1074 41.6114 62.5534 42.3126C61.9993 43.0144 61.2837 43.4945 60.4064 43.7532L51.3753 46.1856V58.1032C51.3753 59.0015 51.1751 59.8141 50.7745 60.5411C50.374 61.268 49.8365 61.8667 49.1621 62.3372C48.4767 62.804 47.7271 63.0904 46.9134 63.1966C46.0997 63.3028 45.26 63.1811 44.3943 62.8316L32.125 57.9825H12.9229ZM48.2215 48.521H29.2684C28.5767 48.521 28.0074 48.7473 27.5606 49.1999C27.1138 49.653 26.8844 50.1928 26.8723 50.8194C26.8602 51.284 26.9806 51.7358 27.2334 52.1747C27.4863 52.6136 27.8915 52.9461 28.4492 53.1721L45.5533 59.9229C46.1999 60.1658 46.8062 60.0951 47.3723 59.7108C47.9384 59.3266 48.2215 58.7907 48.2215 58.1032V48.521ZM16.0767 54.8279H26.1572C25.4455 54.3916 24.8612 53.8305 24.4044 53.1445C23.9471 52.4591 23.7185 51.7164 23.7185 50.9163C23.7185 49.3972 24.2638 48.0926 25.3545 47.0024C26.4447 45.9117 27.7493 45.3664 29.2684 45.3664H41.7561L59.5998 40.7144C59.8626 40.6093 60.0466 40.4779 60.1517 40.3202C60.2568 40.1625 60.2831 39.9785 60.2305 39.7683C60.178 39.558 60.086 39.3872 59.9546 39.2558C59.8232 39.1244 59.6261 39.0587 59.3632 39.0587H25.5382C22.91 39.0587 20.6761 39.9785 18.8363 41.8183C16.9966 43.658 16.0767 45.892 16.0767 48.5202V54.8279ZM31.8459 31.5383C29.244 31.5383 27.0166 30.6119 25.1637 28.759C23.3108 26.9061 22.3844 24.6787 22.3844 22.0768C22.3844 19.4749 23.3108 17.2474 25.1637 15.3946C27.0166 13.5417 29.244 12.6152 31.8459 12.6152C34.4479 12.6152 36.6753 13.5417 38.5281 15.3946C40.381 17.2474 41.3075 19.4749 41.3075 22.0768C41.3075 24.6787 40.381 26.9061 38.5281 28.759C36.6753 30.6119 34.4479 31.5383 31.8459 31.5383ZM31.8459 28.3845C33.5805 28.3845 35.0655 27.7668 36.3007 26.5316C37.536 25.2963 38.1536 23.8114 38.1536 22.0768C38.1536 20.3422 37.536 18.8572 36.3007 17.622C35.0655 16.3867 33.5805 15.7691 31.8459 15.7691C30.1113 15.7691 28.6264 16.3867 27.3911 17.622C26.1559 18.8572 25.5382 20.3422 25.5382 22.0768C25.5382 23.8114 26.1559 25.2963 27.3911 26.5316C28.6264 27.7668 30.1113 28.3845 31.8459 28.3845Z" fill="currentColor"></path></svg>