<svg xmlns="http://www.w3.org/2000/svg" width="77" height="76" viewBox="0 0 77 76" fill="none"><path d="M38.2497 48.8845C41.3226 48.8845 44.6431 48.3759 48.2112 47.3588C51.7792 46.3422 56.6624 44.4815 62.8608 41.7765C63.0873 40.915 63.2442 40.0566 63.3315 39.2014C63.4182 38.3462 63.4616 37.4476 63.4616 36.5057C63.4616 35.9274 63.2382 35.4544 62.7914 35.0864C62.3446 34.7185 61.8321 34.6133 61.2539 34.771C60.518 35.0339 59.7032 35.3098 58.8097 35.5989C57.9161 35.888 56.7859 36.3217 55.4193 36.8999C51.7923 38.4242 48.6911 39.4887 46.1154 40.0932C43.5398 40.6976 40.9116 40.9999 38.2308 40.9999C35.4975 40.9999 32.8167 40.6845 30.1885 40.0537C27.5603 39.423 24.3539 38.3454 20.5693 36.821C19.2026 36.2428 18.1513 35.8223 17.4154 35.5595L15.2077 34.771C14.6295 34.5608 14.117 34.6528 13.6702 35.047C13.2234 35.4412 13 35.9274 13 36.5057C13 37.4476 13.0434 38.3564 13.1301 39.2322C13.2174 40.1073 13.3743 40.9757 13.6008 41.8372C18.7884 44.2389 23.4251 46.0137 27.5109 47.1617C31.5967 48.3102 35.1763 48.8845 38.2497 48.8845ZM38.204 59.923C43.6076 59.923 48.3594 58.633 52.4594 56.0532C56.5594 53.4739 59.5658 50.0675 61.4786 45.8339C56.5292 47.9807 52.2234 49.5515 48.5612 50.5466C44.8991 51.5411 41.4556 52.0383 38.2308 52.0383C35.0607 52.0383 31.5289 51.5279 27.6355 50.5072C23.7415 49.4858 19.518 47.9544 14.9649 45.9128C16.8251 50.1868 19.7982 53.5903 23.884 56.1234C27.9698 58.6564 32.7431 59.923 38.204 59.923ZM38.2308 31.5383C35.1658 31.5383 32.5599 30.4647 30.4132 28.3175C28.266 26.1708 27.1923 23.5649 27.1923 20.4999C27.1923 17.4349 28.266 14.829 30.4132 12.6823C32.5599 10.535 35.1658 9.46143 38.2308 9.46143C41.2958 9.46143 43.9017 10.535 46.0484 12.6823C48.1956 14.829 49.2693 17.4349 49.2693 20.4999C49.2693 23.5649 48.1956 26.1708 46.0484 28.3175C43.9017 30.4647 41.2958 31.5383 38.2308 31.5383ZM38.2426 28.3845C40.4141 28.3845 42.269 27.6113 43.8076 26.0649C45.3461 24.5184 46.1154 22.6595 46.1154 20.4881C46.1154 18.3166 45.3422 16.4617 43.7958 14.9231C42.2493 13.3845 40.3904 12.6153 38.219 12.6153C36.0476 12.6153 34.1926 13.3885 32.654 14.9349C31.1155 16.4814 30.3462 18.3403 30.3462 20.5117C30.3462 22.6831 31.1194 24.5381 32.6658 26.0767C34.2123 27.6152 36.0712 28.3845 38.2426 28.3845ZM38.2253 63.0768C29.9359 63.0768 23.1339 60.6205 17.8191 55.7078C12.5038 50.7952 9.84619 44.3945 9.84619 36.5057C9.84619 34.8236 10.5022 33.4811 11.8142 32.4782C13.1262 31.4758 14.5646 31.2332 16.1294 31.7504C16.9363 32.0059 17.7807 32.3 18.6628 32.6327C19.5448 32.9649 20.5908 33.3865 21.8008 33.8974C25.4477 35.3855 28.4607 36.4158 30.8398 36.9882C33.2183 37.5601 35.682 37.846 38.2308 37.846C40.6934 37.846 43.0993 37.5732 45.4484 37.0276C47.7975 36.4815 50.7169 35.4846 54.2066 34.037C55.65 33.4588 56.8317 32.996 57.7515 32.6485C58.6714 32.3005 59.5377 31.9951 60.3503 31.7323C61.9151 31.2393 63.3504 31.5042 64.6561 32.5271C65.9623 33.55 66.6154 34.8762 66.6154 36.5057C66.6154 40.254 65.8714 43.7364 64.3833 46.9528C62.8952 50.1692 60.8736 52.9764 58.3184 55.3743C55.7628 57.7718 52.7585 59.6549 49.3055 61.0237C45.8526 62.3924 42.1592 63.0768 38.2253 63.0768Z" fill="currentColor"></path></svg>